<svg width="18" height="18" viewBox="0 0 18 18" fill="none" xmlns="http://www.w3.org/2000/svg">
<circle cx="9" cy="9" r="8.7" fill="#FFFEFC" stroke="black" stroke-width="0.6"/>
<path d="M6.16196 4.67014C6.05854 4.56154 5.91512 4.50008 5.76516 4.50008C5.2854 4.50008 5.03728 5.07296 5.36547 5.4229L11.956 12.4501L12.5036 13.0269C12.8796 13.4229 13.5452 13.1341 13.5127 12.589C13.5045 12.4509 13.4477 12.3201 13.3522 12.2199L6.16196 4.67014Z" fill="black"/>
<path d="M6.16196 4.67014C6.05854 4.56154 5.91512 4.50008 5.76516 4.50008C5.2854 4.50008 5.03728 5.07296 5.36547 5.4229L11.956 12.4501L12.5036 13.0269C12.8796 13.4229 13.5452 13.1341 13.5127 12.589C13.5045 12.4509 13.4477 12.3201 13.3522 12.2199L6.16196 4.67014Z" fill="black"/>
<path d="M11.946 4.67014C12.0494 4.56154 12.1928 4.50008 12.3428 4.50008C12.8225 4.50008 13.0706 5.07296 12.7424 5.4229L6.15191 12.4501L5.6043 13.0269C5.2283 13.4229 4.56273 13.1341 4.59518 12.589C4.6034 12.4509 4.66026 12.3201 4.75567 12.2199L11.946 4.67014Z" fill="black"/>
<path d="M11.946 4.67014C12.0494 4.56154 12.1928 4.50008 12.3428 4.50008C12.8225 4.50008 13.0706 5.07296 12.7424 5.4229L6.15191 12.4501L5.6043 13.0269C5.2283 13.4229 4.56273 13.1341 4.59518 12.589C4.6034 12.4509 4.66026 12.3201 4.75567 12.2199L11.946 4.67014Z" fill="black"/>
</svg>
