<svg id="Layer_1" data-name="Layer 1" xmlns="http://www.w3.org/2000/svg" viewBox="0 0 760.16 319.47"><defs><style>.cls-1{fill:teal;}.cls-2{fill:#1a1a1a;stroke:#1d1d1b;stroke-miterlimit:10;}</style></defs><path class="cls-1" d="M719.86,235.64A98.14,98.14,0,0,0,693,204.33a125.44,125.44,0,0,0-38.89-19.77,154.68,154.68,0,0,0-46.47-6.92A119.49,119.49,0,0,0,560,187.19a122.56,122.56,0,0,0-65.1,65.1,123.5,123.5,0,0,0,0,95.24,121.26,121.26,0,0,0,26.2,38.73A120,120,0,0,0,560,412a122.25,122.25,0,0,0,45.14,9.17,24.84,24.84,0,0,1-1.82-30.1,109.39,109.39,0,0,1-24-5.44,87.3,87.3,0,0,1-30.65-18.12,81.4,81.4,0,0,1-19.95-28.83q-7.08-17-7.08-38.4A103.32,103.32,0,0,1,528.05,263a85.72,85.72,0,0,1,18.29-29.18A81.16,81.16,0,0,1,575,214.72Q591.83,208,612.58,208a117.18,117.18,0,0,1,34.78,4.94A82.4,82.4,0,0,1,675,227.24a64.41,64.41,0,0,1,18.13,23.07q6.42,13.69,6.42,31.47,0,13.85-3,23.73a53.16,53.16,0,0,1-7.41,16,33.28,33.28,0,0,1-9.38,9.06,18.34,18.34,0,0,1-9.24,3c-3.75,0-5.61-2.41-5.61-7.25a42.13,42.13,0,0,1,.83-6.92c.53-3.08,1-5.82,1.49-8.25l13.17-69.53H650.16l-2.65,12.2q-8.24-10.56-18.61-15.33a54.1,54.1,0,0,0-22.9-4.79,60.13,60.13,0,0,0-27.52,6.26,65.82,65.82,0,0,0-21.11,16.82,78,78,0,0,0-13.49,24.05,82.91,82.91,0,0,0-4.79,28,62.45,62.45,0,0,0,4.13,23.23A55.85,55.85,0,0,0,554.42,350a49.43,49.43,0,0,0,16.47,11.71,48.46,48.46,0,0,0,19.62,4.12,50,50,0,0,0,20.25-4,39.49,39.49,0,0,0,14.67-10.55h1.33A15.14,15.14,0,0,0,633,362a21.32,21.32,0,0,0,12.85,3.8q13.18,0,28-6.11a90.84,90.84,0,0,0,27.19-17.46,94.59,94.59,0,0,0,20.59-28q8.25-16.62,8.25-37.39Q729.91,254.11,719.86,235.64Zm-85.69,73a33.11,33.11,0,0,1-6.92,10.72,34.62,34.62,0,0,1-10.55,7.41,32.31,32.31,0,0,1-13.67,2.8q-10.89,0-17.3-7.74a27.68,27.68,0,0,1-6.43-18.29,31.86,31.86,0,0,1,2.47-12,38.7,38.7,0,0,1,6.58-10.87,32.82,32.82,0,0,1,9.89-7.74,26.59,26.59,0,0,1,12.36-3c7.91,0,14.21,2.43,19,7.26s7.08,11.09,7.08,18.79A33.57,33.57,0,0,1,634.17,308.64Z" transform="translate(-110.12 -103.2)"/><path class="cls-1" d="M641.08,410.22a17.77,17.77,0,1,1-11.64-22.29A17.79,17.79,0,0,1,641.08,410.22Z" transform="translate(-110.12 -103.2)"/><path class="cls-1" d="M676.24,403.81a13.9,13.9,0,1,1-9.1-17.43A13.93,13.93,0,0,1,676.24,403.81Z" transform="translate(-110.12 -103.2)"/><path class="cls-1" d="M706,387.23a10.43,10.43,0,1,1-6.81-13.08A10.43,10.43,0,0,1,706,387.23Z" transform="translate(-110.12 -103.2)"/><path class="cls-1" d="M726.29,365.85a7.82,7.82,0,1,1-5.13-9.81A7.82,7.82,0,0,1,726.29,365.85Z" transform="translate(-110.12 -103.2)"/><path class="cls-1" d="M705.33,175.36c.67,5.14,5.11,8.65,9.95,7.83a9.53,9.53,0,0,0,7.53-10.76,8.73,8.73,0,0,0-10-7.83C708,165.4,704.66,170.23,705.33,175.36Z" transform="translate(-110.12 -103.2)"/><path class="cls-1" d="M727.16,200.1a7.3,7.3,0,0,0,8.3,6.54,8,8,0,0,0,6.28-9,7.27,7.27,0,0,0-8.3-6.53A8,8,0,0,0,727.16,200.1Z" transform="translate(-110.12 -103.2)"/><path class="cls-1" d="M678,154.14c.83,6.42,6.39,10.8,12.44,9.8s10.25-7,9.42-13.46-6.41-10.8-12.44-9.79S677.18,147.72,678,154.14Z" transform="translate(-110.12 -103.2)"/><path class="cls-1" d="M640.3,135.92c1.05,8.13,8.09,13.68,15.74,12.41s13-8.91,12-17-8.13-13.69-15.77-12.41S639.23,127.77,640.3,135.92Z" transform="translate(-110.12 -103.2)"/><path class="cls-1" d="M592.62,124.08c1.21,9.42,9.38,15.86,18.21,14.36s15-10.3,13.82-19.72-9.37-15.86-18.22-14.37S591.39,114.66,592.62,124.08Z" transform="translate(-110.12 -103.2)"/><path class="cls-1" d="M532.38,130.39c1.68,12.85,12.81,21.63,24.9,19.61s20.48-14.06,18.83-26.9-12.81-21.62-24.89-19.61S530.72,117.56,532.38,130.39Z" transform="translate(-110.12 -103.2)"/><path class="cls-1" d="M453.82,166.15c2.65,15.89,16.9,26.33,31.84,23.28S510.53,171,507.9,155.1s-16.9-26.32-31.84-23.29S451.18,150.25,453.82,166.15Z" transform="translate(-110.12 -103.2)"/><path class="cls-1" d="M393.45,229.13c2.82,16.93,18,28,33.87,24.78s26.47-19.59,23.66-36.52-18-28-33.87-24.77S390.65,212.22,393.45,229.13Z" transform="translate(-110.12 -103.2)"/><path class="cls-2" d="M443.2,260.37A37.93,37.93,0,0,1,430,265.91a36,36,0,0,1-20.57-1.8C402.52,268.39,399,275.83,399,287v43.38a2.74,2.74,0,0,0,2.61,2.73h18.69a2.74,2.74,0,0,0,2.62-2.73V287c0-4.73.37-8.09,6.23-8.09h4.74c5.85,0,6.23,3.36,6.23,8.09v43.38a2.74,2.74,0,0,0,2.61,2.73h18.71a2.74,2.74,0,0,0,2.61-2.73V287C464,271.14,456.82,262.79,443.2,260.37Z" transform="translate(-110.12 -103.2)"/><path class="cls-2" d="M171.3,330.24a137.45,137.45,0,0,1-27.91,3.12c-20.44,0-32.77-11.47-32.77-32.52v-9.72c0-19.82,10.72-32.53,32.77-32.53a76.76,76.76,0,0,1,8.48.87V238.4a2.51,2.51,0,0,1,2.49-2.5h18.56a2.74,2.74,0,0,1,2.75,2.5v87.86C175.67,328.38,175.05,329.37,171.3,330.24Zm-19.43-51.33a83.14,83.14,0,0,0-8.48-.5c-7,0-9,5.35-9,12.71v9.72c0,7.48,2,12.82,9,12.82a49.79,49.79,0,0,0,8.48-.62Z" transform="translate(-110.12 -103.2)"/><path class="cls-2" d="M242.8,330.63a109.14,109.14,0,0,1-27.17,3.61c-21.3,0-31.78-7.22-31.78-22.8v-1c0-15,12-20.44,31.78-20.44h4.86v-3.48c0-6.12-3.49-7.23-7.73-7.23-8.09,0-17.69.5-21.31.88a2.33,2.33,0,0,1-2.61-2.5V265.58a3,3,0,0,1,2.37-3,87.17,87.17,0,0,1,21.55-3.13c18.08,0,31.53,6,31.53,27v41.24C244.29,329.25,244.17,330.26,242.8,330.63ZM221.12,303h-5.49c-6.1,0-9,2.11-9,7.35v1.12c0,5.11,3.37,6.1,9,6.1a37.16,37.16,0,0,0,5.49-.36Z" transform="translate(-110.12 -103.2)"/><path class="cls-2" d="M285.25,358.55a79.17,79.17,0,0,1-24.3-3.74,3.19,3.19,0,0,1-2.49-3.5V341.1a2.17,2.17,0,0,1,2.24-2.35H261c5.61.47,18.07,1.47,24.3,1.47,7.11,0,9.1-1.61,9.1-7.35v-2.12a59.87,59.87,0,0,1-9,.88c-22.05,0-32.77-12.72-32.77-32.53V292c0-20.94,12.35-32.53,32.77-32.53,11.22,0,21.81,1.25,27.92,2.87,3.74,1,4.36,1.61,4.36,3.74v66.79C317.65,351.19,307.31,358.55,285.25,358.55Zm9.1-78.64a77.47,77.47,0,0,0-9-.62c-7,0-9,5.24-9,12.71v7.1c0,7.23,2,12.83,9,12.83,3,0,6.49-.37,9-.62Z" transform="translate(-110.12 -103.2)"/><path class="cls-2" d="M388.26,303.59H349.51v.25c0,6.6,2.75,10.71,11.84,10.71,6.61,0,18.95-.49,23.68-1h.5c1.37,0,2.24.62,2.24,2.11V326.9c0,2-.5,2.86-2.48,3.49-8,2.62-16.59,3.85-27.05,3.85-16.83,0-32.41-8.84-32.41-32.64v-8.24c0-21.93,12.71-33.89,33.16-33.89,21.8,0,31.9,13.84,31.9,33.89v7.48A2.6,2.6,0,0,1,388.26,303.59ZM368,290c0-7.47-3-12-9.23-12-6,0-9.22,4.5-9.22,12v.38H368Z" transform="translate(-110.12 -103.2)"/><path class="cls-2" d="M775.19,261.6H755.51a2.84,2.84,0,0,1-2.87-2.49V246.9a2.84,2.84,0,0,1,2.87-2.49h19.68a2.71,2.71,0,0,1,2.74,2.49v12.21A2.72,2.72,0,0,1,775.19,261.6ZM774.56,341H756a2.94,2.94,0,0,1-2.72-2.74V271.08a2.82,2.82,0,0,1,2.72-2.62h18.57a2.83,2.83,0,0,1,2.75,2.62v67.17A3,3,0,0,1,774.56,341Z" transform="translate(-110.12 -103.2)"/><path class="cls-2" d="M831.89,286.15H815.57v52.1A2.84,2.84,0,0,1,813,341H794.14a2.85,2.85,0,0,1-2.63-2.74V265.09c0-18.44,12.35-22.68,26.18-22.68a91.19,91.19,0,0,1,14.58,1.24c1.74.38,2.24.88,2.24,2v12.08a2.08,2.08,0,0,1-2.24,2.24h-11c-5.11,0-5.73,1.62-5.73,5.11v3.37h16.32a2.6,2.6,0,0,1,2.62,2.48v12.6A2.72,2.72,0,0,1,831.89,286.15Z" transform="translate(-110.12 -103.2)"/><path class="cls-2" d="M867,261.6H847.35a2.83,2.83,0,0,1-2.86-2.49V246.9a2.83,2.83,0,0,1,2.86-2.49H867a2.71,2.71,0,0,1,2.74,2.49v12.21A2.72,2.72,0,0,1,867,261.6ZM866.42,341H847.85a3,3,0,0,1-2.74-2.74V271.08a2.84,2.84,0,0,1,2.74-2.62h18.57a2.84,2.84,0,0,1,2.75,2.62v67.17A3,3,0,0,1,866.42,341Z" transform="translate(-110.12 -103.2)"/></svg>