<svg id="Layer_1" data-name="Layer 1" xmlns="http://www.w3.org/2000/svg" viewBox="0 0 1025.68 256.83"><defs><style>.cls-1{fill:teal;stroke:teal;}.cls-1,.cls-2{stroke-miterlimit:10;}.cls-2,.cls-3{fill:#1a1a1a;stroke:#1a1a1a;}.cls-3{fill-rule:evenodd;}</style></defs><g id="Page-1"><g id="dagen-logo"><g id="Group"><g id="Shape"><path class="cls-1" d="M903.11,106.48a78.91,78.91,0,0,0-21.44-25.06,100.47,100.47,0,0,0-31-15.85,122.91,122.91,0,0,0-37-5.52,95.59,95.59,0,0,0-37.93,7.6,97.89,97.89,0,0,0-51.87,52.12,95.41,95.41,0,0,0-7.57,38.11A96.68,96.68,0,0,0,744.71,227a95.08,95.08,0,0,0,31,20.57,98.23,98.23,0,0,0,35.94,7.37,20,20,0,0,1-3.91-19,20.52,20.52,0,0,1,2.47-5.12,90.12,90.12,0,0,1-19.12-4.32A70,70,0,0,1,766.62,212,64.34,64.34,0,0,1,750.76,189a79.88,79.88,0,0,1-5.66-30.75,83,83,0,0,1,5.1-29.78A69.92,69.92,0,0,1,764.78,105a65.13,65.13,0,0,1,22.87-15.29,79.39,79.39,0,0,1,30-5.44,93.36,93.36,0,0,1,27.73,3.92,66.32,66.32,0,0,1,22.07,11.45,51.79,51.79,0,0,1,14.42,18.49c3.43,7.29,5.1,15.69,5.1,25.22a66.38,66.38,0,0,1-2.39,19,44.33,44.33,0,0,1-5.9,12.81,26.74,26.74,0,0,1-7.48,7.28,14.37,14.37,0,0,1-7.34,2.4c-2.94,0-4.46-1.92-4.46-5.76a39.93,39.93,0,0,1,.64-5.52c.4-2.49.8-4.65,1.2-6.65l10.51-55.64H847.57l-2.07,9.76a40.92,40.92,0,0,0-14.82-12.25A42.87,42.87,0,0,0,812.43,105,47.14,47.14,0,0,0,790.52,110a52.06,52.06,0,0,0-16.81,13.45A63.33,63.33,0,0,0,763,142.75a66.94,66.94,0,0,0-3.82,22.42,50.73,50.73,0,0,0,3.26,18.57,45.67,45.67,0,0,0,8.93,14.41,38,38,0,0,0,13.15,9.37,40.59,40.59,0,0,0,31.79.08A32.24,32.24,0,0,0,828,199.2h1a11.81,11.81,0,0,0,5,8.56,17.13,17.13,0,0,0,10.2,3,58,58,0,0,0,22.31-4.88,73.59,73.59,0,0,0,21.68-14,76.52,76.52,0,0,0,16.41-22.42c4.38-8.89,6.53-18.81,6.53-29.94C911.07,127.3,908.44,116.33,903.11,106.48Zm-68.29,58.45a26.79,26.79,0,0,1-5.5,8.57,27.8,27.8,0,0,1-8.44,5.92A25.39,25.39,0,0,1,810,181.66a17,17,0,0,1-13.78-6.16,22.32,22.32,0,0,1-5.1-14.65,24.49,24.49,0,0,1,2-9.61,30.48,30.48,0,0,1,5.26-8.73,24.79,24.79,0,0,1,7.89-6.16,20.83,20.83,0,0,1,9.88-2.41c6.29,0,11.31,1.93,15.14,5.85s5.65,8.89,5.65,15.05A29.51,29.51,0,0,1,834.82,164.93Z" transform="translate(0.5 0.09)"/><path class="cls-1" d="M840.32,246.27a14.17,14.17,0,1,1-9.24-17.85A14.28,14.28,0,0,1,840.32,246.27Z" transform="translate(0.5 0.09)"/><path class="cls-1" d="M868.37,241.15a11.07,11.07,0,1,1-7.25-13.93A11.08,11.08,0,0,1,868.37,241.15Z" transform="translate(0.5 0.09)"/><path class="cls-1" d="M892,227.86a8.32,8.32,0,1,1-5.42-10.49A8.31,8.31,0,0,1,892,227.86Z" transform="translate(0.5 0.09)"/><path class="cls-1" d="M908.21,210.72a6.23,6.23,0,1,1-4.07-7.84A6.24,6.24,0,0,1,908.21,210.72Z" transform="translate(0.5 0.09)"/><path class="cls-1" d="M891.55,58.21c.56,4.08,4.07,7,8,6.24a7.62,7.62,0,0,0,6-8.65,7,7,0,0,0-8-6.24A7.66,7.66,0,0,0,891.55,58.21Z" transform="translate(0.5 0.09)"/><path class="cls-1" d="M908.92,78a5.8,5.8,0,0,0,6.62,5.2,6.47,6.47,0,0,0,5-7.2,5.8,5.8,0,0,0-6.62-5.2A6.49,6.49,0,0,0,908.92,78Z" transform="translate(0.5 0.09)"/><path class="cls-1" d="M869.72,41.23a8.7,8.7,0,0,0,9.88,7.85,9.45,9.45,0,0,0,7.49-10.81,8.71,8.71,0,0,0-9.88-7.85C872.43,31.22,869.08,36.11,869.72,41.23Z" transform="translate(0.5 0.09)"/><path class="cls-1" d="M839.68,26.66c.88,6.49,6.46,11,12.51,9.93s10.36-7.13,9.48-13.61-6.45-11-12.59-9.93C843.11,14,838.89,20.1,839.68,26.66Z" transform="translate(0.5 0.09)"/><path class="cls-1" d="M801.68,17.13c1,7.53,7.49,12.73,14.5,11.53s12-8.24,11-15.77S819.68.16,812.67,1.36,800.72,9.61,801.68,17.13Z" transform="translate(0.5 0.09)"/><path class="cls-1" d="M753.71,22.18c1.35,10.25,10.2,17.29,19.84,15.69s16.33-11.29,15-21.54S778.33-1,768.69.64,752.43,11.93,753.71,22.18Z" transform="translate(0.5 0.09)"/><path class="cls-1" d="M691.16,50.84c2.07,12.73,13.47,21.06,25.34,18.65S736.34,54.76,734.19,42s-13.47-21-25.34-18.65S689,38.11,691.16,50.84Z" transform="translate(0.5 0.09)"/></g><path id="Shape-2" data-name="Shape" class="cls-1" d="M643,101.28c2.23,13.53,14.34,22.42,27,19.85s21.11-15.69,18.88-29.22-14.34-22.42-27-19.85S640.8,87.75,643,101.28Z" transform="translate(0.5 0.09)"/></g><g id="Group-2" data-name="Group"><path id="Shape-3" data-name="Shape" class="cls-2" d="M683.48,122.12a29.32,29.32,0,0,1-10.56,4.39,28.72,28.72,0,0,1-16.48-1.44c-5.52,3.44-8.32,9.34-8.32,18.29V178a2.13,2.13,0,0,0,2.08,2.15h15a2.18,2.18,0,0,0,2.08-2.15V143.36c0-3.76.32-6.47,5-6.47H676c4.72,0,5,2.71,5,6.47V178a2.13,2.13,0,0,0,2.08,2.15h15A2.18,2.18,0,0,0,700,178V143.36C700.12,130.66,694.36,124,683.48,122.12Z" transform="translate(0.5 0.09)"/><path id="Shape-4" data-name="Shape" class="cls-2" d="M523.16,178.17A87.92,87.92,0,0,1,501.4,181c-17,0-25.44-5.75-25.44-18.2V162c0-12,9.6-16.29,25.44-16.29h3.92V143c0-4.87-2.8-5.75-6.16-5.75-6.48,0-14.16.4-17,.72a1.87,1.87,0,0,1-2.08-2v-9.66a2.45,2.45,0,0,1,1.92-2.39,72,72,0,0,1,17.28-2.48c14.48,0,25.2,4.79,25.2,21.56v32.89C524.36,177.05,524.2,177.85,523.16,178.17Zm-17.36-22h-4.4c-4.88,0-7.2,1.68-7.2,5.83v.88c0,4.07,2.72,4.87,7.2,4.87a23.57,23.57,0,0,0,4.4-.32Z" transform="translate(0.5 0.09)"/><path id="Shape-5" data-name="Shape" class="cls-2" d="M557.08,200.44a66,66,0,0,1-19.44-2.95,2.57,2.57,0,0,1-2-2.8v-8.14a1.77,1.77,0,0,1,1.76-1.92h.24c4.48.4,14.48,1.2,19.44,1.2,5.68,0,7.28-1.28,7.28-5.91v-1.67a45.66,45.66,0,0,1-7.2.71c-17.68,0-26.24-10.14-26.24-25.94v-5.67c0-16.69,9.84-25.95,26.24-25.95,9,0,17.44,1,22.32,2.32,3,.79,3.52,1.27,3.52,3V180C583,194.61,574.76,200.44,557.08,200.44Zm7.28-62.75a54.62,54.62,0,0,0-7.2-.48c-5.6,0-7.2,4.15-7.2,10.14V153c0,5.75,1.6,10.22,7.2,10.22,2.4,0,5.2-.32,7.2-.48Z" transform="translate(0.5 0.09)"/><path id="Shape-6" data-name="Shape" class="cls-2" d="M639.48,156.61h-31v.16c0,5.27,2.16,8.54,9.44,8.54,5.28,0,15.12-.4,19-.8h.4c1.12,0,1.76.48,1.76,1.68v8.94c0,1.6-.4,2.32-2,2.8A68.58,68.58,0,0,1,615.4,181c-13.44,0-25.92-7-25.92-26v-6.54c0-17.49,10.16-27.07,26.56-27.07,17.44,0,25.52,11,25.52,27.07v6A2,2,0,0,1,639.48,156.61Zm-16.24-10.86c0-6-2.4-9.58-7.36-9.58-4.8,0-7.36,3.59-7.36,9.58v.32h14.72Z" transform="translate(0.5 0.09)"/><path id="Shape-7" data-name="Shape" class="cls-2" d="M949.08,123.08H933.32a2.27,2.27,0,0,1-2.32-2v-9.74a2.27,2.27,0,0,1,2.32-2h15.76a2.11,2.11,0,0,1,2.16,2v9.74A2.18,2.18,0,0,1,949.08,123.08Zm-.56,63.39H933.64a2.32,2.32,0,0,1-2.16-2.16V130.66a2.24,2.24,0,0,1,2.16-2.07h14.88a2.18,2.18,0,0,1,2.16,2.07v53.57A2.27,2.27,0,0,1,948.52,186.47Z" transform="translate(0.5 0.09)"/><path id="Shape-8" data-name="Shape" class="cls-2" d="M994.44,142.64h-13v41.59a2.19,2.19,0,0,1-2.08,2.16H964.2a2.25,2.25,0,0,1-2.08-2.16V125.79c0-14.69,9.84-18.12,21-18.12a75.37,75.37,0,0,1,11.68,1c1.36.32,1.76.72,1.76,1.59v9.66a1.64,1.64,0,0,1-1.76,1.76H986c-4.08,0-4.56,1.28-4.56,4.07v2.72h13a2,2,0,0,1,2.08,2v10.06A2.19,2.19,0,0,1,994.44,142.64Z" transform="translate(0.5 0.09)"/><path id="Shape-9" data-name="Shape" class="cls-2" d="M1022.52,123.08h-15.76a2.27,2.27,0,0,1-2.32-2v-9.74a2.27,2.27,0,0,1,2.32-2h15.76a2.11,2.11,0,0,1,2.16,2v9.74A2.07,2.07,0,0,1,1022.52,123.08Zm-.48,63.39h-14.88a2.32,2.32,0,0,1-2.16-2.16V130.66a2.24,2.24,0,0,1,2.16-2.07H1022a2.18,2.18,0,0,1,2.16,2.07v53.57A2.34,2.34,0,0,1,1022,186.47Z" transform="translate(0.5 0.09)"/></g></g><path id="ettermidd" class="cls-3" d="M51,153.12c0,1.53-.82,2.45-2.14,2.45H16.32v.2c0,5.82,2.45,11.12,10.51,11.12,6.42,0,15.5-.51,19.58-.92h.31c1.12,0,1.93.51,1.93,1.64v7.75c0,1.63-.4,2.34-2.14,2.75a78,78,0,0,1-20.91,2.45C13.26,180.56,0,174,0,154.35v-7.14c0-16.43,9.59-26.83,25.81-26.83C42.53,120.38,51,131.8,51,147.21Zm-16.12-7.75V145c0-7.55-3.46-11.32-9.18-11.32s-9.38,3.88-9.38,11.32v.41ZM94,131.5a2,2,0,0,1-2,2H78v30.29c0,3.57,1.63,4.18,6,4.18H91.7c1.32,0,2.14.62,2.14,1.74v7.85c0,1.12-.71,1.84-2,2a81.09,81.09,0,0,1-12.24.92c-11.42,0-18.16-3.57-18.16-16.83v-51.2a2.18,2.18,0,0,1,2-2l12.45-2.15h.3a2.1,2.1,0,0,1,1.84,2V121.2H92a2,2,0,0,1,2,2Zm40.91,0a2,2,0,0,1-2,2h-14v30.29c0,3.57,1.63,4.18,6,4.18h7.65c1.33,0,2.14.62,2.14,1.74v7.85c0,1.12-.71,1.84-2,2a81.09,81.09,0,0,1-12.24.92c-11.42,0-18.15-3.57-18.15-16.83v-51.2a2.18,2.18,0,0,1,2-2l12.44-2.15h.31a2.1,2.1,0,0,1,1.83,2V121.2h14a2,2,0,0,1,2,2Zm58,21.62c0,1.53-.81,2.45-2.14,2.45H158.3v.2c0,5.82,2.45,11.12,10.51,11.12,6.43,0,15.5-.51,19.58-.92h.31c1.12,0,1.94.51,1.94,1.64v7.75c0,1.63-.41,2.34-2.14,2.75a78,78,0,0,1-20.91,2.45c-12.35,0-25.61-6.53-25.61-26.21v-7.14c0-16.43,9.59-26.83,25.81-26.83,16.73,0,25.19,11.42,25.19,26.83Zm-16.11-7.75V145c0-7.55-3.47-11.32-9.18-11.32s-9.39,3.88-9.39,11.32v.41Zm55.28-13.16c0,1.12-.81,1.94-2.75,1.94a60.71,60.71,0,0,0-9.18.61V177.5a2.14,2.14,0,0,1-2,2.14H205.84a2.23,2.23,0,0,1-2.15-2.14V126.6c0-1.43.82-2.45,3.17-3.26,6.52-2.14,12.85-3,22.54-3,1.22,0,2.75.51,2.75,1.94ZM317,177.4a2.23,2.23,0,0,1-2,2.24H302.53a2.23,2.23,0,0,1-2-2.24v-36c0-5.81-1.73-7.44-6-7.44h-1.93c-5.1,0-5.72,3-5.72,7.44v36a2.14,2.14,0,0,1-1.93,2.24H272.34a2.23,2.23,0,0,1-2-2.24v-36c0-4.49-.61-7.44-5.71-7.44h-2c-4.29,0-5.92,1.63-5.92,7.44v36a2.23,2.23,0,0,1-2,2.24H242.15a2.23,2.23,0,0,1-2-2.24v-36c0-14.38,8.16-21,22.44-21h2c6,0,10.61,1.73,14,4.39,3.37-2.66,8-4.39,14-4.39h1.93c14.28,0,22.55,6.63,22.55,21Zm29.07-64.87a2,2,0,0,1-2,2H330.79a2,2,0,0,1-2-2V103a2,2,0,0,1,2-2h13.26a2,2,0,0,1,2,2Zm-.41,65.07a2,2,0,0,1-2,2H331.19a2,2,0,0,1-2-2V123.24a2,2,0,0,1,2-2h12.45a2,2,0,0,1,2,2Zm61.2-2.65c0,1.63-.41,2.35-3.16,3a94.86,94.86,0,0,1-21.63,2.65c-16.52,0-25.6-9.59-25.6-26.11v-8c0-16,8.36-26.11,25.6-26.11a72.85,72.85,0,0,1,8.37.71V103.45a2,2,0,0,1,2-2h12.24a2.14,2.14,0,0,1,2.14,2Zm-16.42-8.57V134.56a75.81,75.81,0,0,0-8.37-.51c-7.24,0-9.18,5.3-9.18,12.44v8c0,7.24,1.94,12.54,9.18,12.54A56,56,0,0,0,390.46,166.38ZM465,174.54c0,1.63-.4,2.35-3.16,3a94.77,94.77,0,0,1-21.62,2.65c-16.53,0-25.6-9.59-25.6-26.11v-8c0-16,8.36-26.11,25.6-26.11a70.76,70.76,0,0,1,8.36.72V103a2,2,0,0,1,2-2H462.9a2.14,2.14,0,0,1,2.14,2ZM448.62,166V134.15a75.63,75.63,0,0,0-8.36-.51c-7.24,0-9.18,5.3-9.18,12.44v8c0,7.24,1.94,12.55,9.18,12.55A55.76,55.76,0,0,0,448.62,166Z" transform="translate(0.5 0.09)"/></g></svg>