<?xml version="1.0" encoding="UTF-8"?><svg id="Layer_1" xmlns="http://www.w3.org/2000/svg" viewBox="0 0 137.05 41.42"><defs><style>.cls-1{fill:#f66600;}.cls-2{fill:#232323;}</style></defs><g><path class="cls-2" d="m27.43,36.22l-.93-.22c-.67-.16-.88-.38-.88-.7,0-.44.37-.71,1.06-.71.63,0,1.12.23,1.43.65l.73-.54c-.33-.62-1.12-1.03-2.14-1.03-1.32,0-2.11.69-2.11,1.64,0,.79.53,1.33,1.59,1.58l.91.22c.63.15.85.38.85.73,0,.47-.39.77-1.11.77s-1.33-.31-1.66-.89l-.74.53c.37.79,1.23,1.27,2.37,1.27,1.39,0,2.18-.71,2.18-1.74,0-.79-.47-1.32-1.55-1.58Z"/><path class="cls-2" d="m31.73,35.21c-1.24,0-2.08.91-2.08,2.18s.86,2.14,2.18,2.14c.76,0,1.37-.29,1.77-.79l-.59-.58c-.3.35-.69.52-1.15.52-.67,0-1.1-.35-1.21-1.02h3.06c.02-.13.02-.26.02-.38,0-1.25-.81-2.08-2-2.08Zm-1.08,1.79c.1-.59.48-.94,1.09-.94s.96.33,1.01.94h-2.1Z"/><path class="cls-2" d="m36.58,36.12c.41,0,.75.19.98.69l.81-.45c-.31-.72-.99-1.14-1.85-1.14-1.23,0-2.1.89-2.1,2.17s.87,2.16,2.1,2.16c.85,0,1.55-.41,1.85-1.14l-.81-.45c-.23.49-.57.69-.98.69-.69,0-1.14-.5-1.14-1.27s.45-1.27,1.14-1.27Z"/><path class="cls-2" d="m41.82,37.69c0,.6-.4.96-.99.96-.53,0-.73-.29-.73-.9v-2.42h-.98v2.67c0,.99.48,1.55,1.37,1.55.62,0,1.12-.28,1.35-.75v.64h.97v-4.1h-.98v2.36Z"/><path class="cls-2" d="m45,36.01v-.69h-.97v4.1h.98v-2.02c0-.85.38-1.22,1.1-1.22.14,0,.3.02.45.04v-.92c-.11-.04-.23-.06-.35-.06-.56,0-1.01.28-1.21.76Z"/><rect class="cls-2" x="47.38" y="35.33" width=".98" height="4.1"/><path class="cls-2" d="m47.88,33.42c-.38,0-.63.26-.63.61s.25.61.63.61.62-.26.62-.61-.25-.61-.62-.61Z"/><path class="cls-2" d="m51.91,35.21c-.63,0-1.12.28-1.35.74v-.63h-.97v4.1h.98v-2.35c0-.61.4-.96.99-.96.54,0,.78.28.78.9v2.41h.98v-2.66c0-1-.54-1.56-1.43-1.56Z"/><path class="cls-2" d="m57.56,36c-.24-.49-.77-.78-1.4-.78-1.1,0-1.89.87-1.89,2.1s.8,2.07,1.89,2.07c.64,0,1.18-.29,1.41-.77v.34c0,.86-.48,1.32-1.3,1.32-.51,0-1-.18-1.39-.49l-.48.72c.44.4,1.13.65,1.92.65,1.42,0,2.22-.81,2.22-2.2v-3.63h-.97v.67Zm-1.13,2.52c-.71,0-1.15-.51-1.15-1.21s.44-1.21,1.15-1.21,1.15.51,1.15,1.21-.45,1.21-1.15,1.21Z"/><polygon class="cls-2" points="63.13 38.34 62.02 35.33 60.97 35.33 62.62 39.43 62.03 41.04 63.01 41.04 65.22 35.33 64.18 35.33 63.13 38.34"/><path class="cls-2" d="m67.71,35.21c-1.31,0-2.16.98-2.16,2.17s.85,2.16,2.16,2.16,2.16-.98,2.16-2.16-.84-2.17-2.16-2.17Zm0,3.43c-.71,0-1.15-.52-1.15-1.27s.44-1.27,1.15-1.27,1.15.52,1.15,1.27-.44,1.27-1.15,1.27Z"/><path class="cls-2" d="m73.52,37.69c0,.6-.4.96-.99.96-.53,0-.73-.29-.73-.9v-2.42h-.98v2.67c0,.99.48,1.55,1.37,1.55.62,0,1.12-.28,1.35-.75v.64h.97v-4.1h-.98v2.36Z"/><path class="cls-2" d="m76.69,36.01v-.69h-.97v4.1h.98v-2.02c0-.85.38-1.22,1.1-1.22.14,0,.3.02.45.04v-.92c-.11-.04-.23-.06-.35-.06-.56,0-1.01.28-1.21.76Z"/><path class="cls-2" d="m83.26,35.21c-.6,0-1.14.27-1.39.74v-2.43h-.98v5.9h.97v-.65c.24.48.78.77,1.4.77,1.1,0,1.89-.88,1.89-2.16s-.79-2.17-1.89-2.17Zm-.27,3.43c-.71,0-1.15-.52-1.15-1.27s.44-1.27,1.15-1.27,1.15.52,1.15,1.27-.45,1.27-1.15,1.27Z"/><path class="cls-2" d="m88.79,37.69c0,.6-.4.96-.99.96-.53,0-.73-.29-.73-.9v-2.42h-.98v2.67c0,.99.48,1.55,1.37,1.55.62,0,1.12-.28,1.35-.75v.64h.97v-4.1h-.98v2.36Z"/><path class="cls-2" d="m93.06,37.04l-.71-.16c-.44-.1-.57-.23-.57-.41,0-.25.23-.42.69-.42.43,0,.83.15,1.19.46l.52-.64c-.36-.41-.96-.66-1.69-.66-1.06,0-1.69.53-1.69,1.29,0,.57.36.96,1.22,1.16l.67.16c.41.1.57.23.57.44,0,.26-.26.44-.73.44-.52,0-1.02-.21-1.35-.57l-.53.62c.37.48,1.06.79,1.87.79,1.09,0,1.72-.52,1.72-1.34,0-.56-.31-.96-1.18-1.16Z"/><rect class="cls-2" x="95.16" y="35.33" width=".98" height="4.1"/><path class="cls-2" d="m95.65,33.42c-.38,0-.63.26-.63.61s.25.61.63.61.62-.26.62-.61-.25-.61-.62-.61Z"/><path class="cls-2" d="m99.68,35.21c-.63,0-1.12.28-1.35.74v-.63h-.97v4.1h.98v-2.35c0-.61.39-.96.99-.96.54,0,.78.28.78.9v2.41h.98v-2.66c0-1-.54-1.56-1.43-1.56Z"/><path class="cls-2" d="m104.12,35.21c-1.24,0-2.08.91-2.08,2.18s.86,2.14,2.18,2.14c.76,0,1.37-.29,1.77-.79l-.59-.58c-.3.35-.69.52-1.14.52-.67,0-1.1-.35-1.21-1.02h3.06c.02-.13.02-.26.02-.38,0-1.25-.81-2.08-2-2.08Zm-1.08,1.79c.1-.59.48-.94,1.09-.94s.96.33,1.01.94h-2.1Z"/><path class="cls-2" d="m109.13,37.04l-.71-.16c-.44-.1-.57-.23-.57-.41,0-.25.23-.42.69-.42.43,0,.83.15,1.19.46l.52-.64c-.36-.41-.96-.66-1.69-.66-1.06,0-1.69.53-1.69,1.29,0,.57.36.96,1.22,1.16l.67.16c.41.1.57.23.57.44,0,.26-.26.44-.73.44-.52,0-1.02-.21-1.35-.57l-.53.62c.37.48,1.06.79,1.87.79,1.09,0,1.72-.52,1.72-1.34,0-.56-.31-.96-1.18-1.16Z"/><path class="cls-2" d="m113.28,37.04l-.71-.16c-.44-.1-.57-.23-.57-.41,0-.25.23-.42.69-.42.43,0,.83.15,1.19.46l.52-.64c-.36-.41-.96-.66-1.69-.66-1.06,0-1.69.53-1.69,1.29,0,.57.36.96,1.22,1.16l.67.16c.41.1.57.23.57.44,0,.26-.26.44-.73.44-.52,0-1.02-.21-1.35-.57l-.53.62c.37.48,1.06.79,1.87.79,1.09,0,1.72-.52,1.72-1.34,0-.56-.31-.96-1.18-1.16Z"/><path class="cls-2" d="m115.83,38.21c-.4,0-.65.26-.65.65s.25.66.65.66.65-.27.65-.66-.25-.65-.65-.65Z"/><path class="cls-2" d="m33.18,13.21c1.99,0,2.91,1.06,2.91,3.34v8.45h3.24v-9.34c0-3.44-1.8-5.41-4.95-5.41-2.14,0-3.89.96-4.67,2.57l-.25.5v-2.67h-3.18v14.34h3.24v-8.25c0-2.19,1.4-3.54,3.66-3.54Z"/><path class="cls-2" d="m103.53,16.75c0-2.19,1.4-3.54,3.66-3.54,1.99,0,2.91,1.06,2.91,3.34v8.45h3.24v-9.34c0-3.44-1.8-5.41-4.95-5.41-2.14,0-3.89.96-4.67,2.57l-.25.5v-2.67h-3.18v14.34h3.24v-8.25Z"/><path class="cls-2" d="m55.68,22.73l-1.91-1.89c-1.06,1.18-2.43,1.78-4.08,1.78-2.48,0-4.05-1.32-4.43-3.73l-.02-.15h10.91c.05-.41.07-.82.07-1.22,0-4.35-2.81-7.27-6.99-7.27s-7.27,3.14-7.27,7.65,2.99,7.5,7.62,7.5c2.53,0,4.7-.95,6.11-2.67Zm-6.42-9.7c2.19,0,3.54,1.26,3.72,3.45h-7.72c.39-2.21,1.82-3.45,4.01-3.45Z"/><path class="cls-2" d="m77.69,16.5v8.51h3.24v-9.37c0-3.42-1.74-5.38-4.78-5.38-2.24,0-4.11,1.06-4.87,2.76l-.13.29-.11-.29c-.67-1.75-2.22-2.76-4.27-2.76s-3.71.95-4.5,2.54l-.25.49v-2.63h-3.18v14.34h3.24v-8.28c0-2.17,1.34-3.52,3.49-3.52,1.83,0,2.68,1.04,2.68,3.29v8.51h3.24v-8.28c0-2.17,1.35-3.52,3.52-3.52,1.83,0,2.68,1.04,2.68,3.29Z"/><path class="cls-2" d="m17.81,10.26c-2.24,0-4.11,1.06-4.87,2.76l-.13.29-.11-.29c-.67-1.75-2.22-2.76-4.27-2.76s-3.71.95-4.5,2.54l-.25.49v-2.63H.49v14.34h3.24v-8.28c0-2.17,1.34-3.52,3.49-3.52,1.83,0,2.68,1.04,2.68,3.29v8.51h3.24v-8.28c0-2.17,1.35-3.52,3.52-3.52,1.83,0,2.68,1.04,2.68,3.29v8.51h3.24v-9.37c0-3.42-1.74-5.38-4.78-5.38Z"/><path class="cls-2" d="m98.31,17.84c0-4.4-3.18-7.59-7.56-7.59s-7.56,3.19-7.56,7.59,3.18,7.56,7.56,7.56,7.56-3.18,7.56-7.56Zm-11.79,0c0-2.79,1.7-4.66,4.23-4.66s4.23,1.87,4.23,4.66-1.7,4.64-4.23,4.64-4.23-1.86-4.23-4.64Z"/><polygon class="cls-2" points="117.19 25 120.43 25 120.43 12.41 117.19 10.08 117.19 25"/><path class="cls-2" d="m130.23,22.41c-2.55,0-4.2-1.82-4.2-4.64s1.65-4.63,4.2-4.63c1.59,0,2.76.78,3.56,2.39l2.67-1.48c-1.1-2.45-3.43-3.86-6.43-3.86-4.32,0-7.33,3.12-7.33,7.59s3.01,7.56,7.33,7.56c2.97,0,5.36-1.44,6.41-3.86l-2.65-1.48c-.8,1.6-2,2.42-3.56,2.42Z"/><polygon class="cls-2" points="123.92 4.69 117.22 4.7 123.92 9.52 123.92 4.69"/></g><polygon class="cls-1" points="132.52 4.7 117.22 4.7 117.22 .21 126.32 .21 132.52 4.7"/></svg>